<svg width="15" height="16" viewBox="0 0 15 16" fill="none" xmlns="http://www.w3.org/2000/svg">
<path d="M4.7868 11.9076H10.5736M6.96965 1.61002L2.06366 5.42579C1.73572 5.68086 1.57175 5.80839 1.45362 5.96811C1.34898 6.10959 1.27102 6.26897 1.22359 6.43843C1.17004 6.62973 1.17004 6.83746 1.17004 7.25292V12.4863C1.17004 13.2965 1.17004 13.7017 1.32773 14.0111C1.46643 14.2833 1.68774 14.5047 1.95996 14.6434C2.26942 14.801 2.67454 14.801 3.48477 14.801H11.8756C12.6859 14.801 13.091 14.801 13.4005 14.6434C13.6727 14.5047 13.894 14.2833 14.0327 14.0111C14.1904 13.7017 14.1904 13.2965 14.1904 12.4863V7.25292C14.1904 6.83746 14.1904 6.62973 14.1368 6.43843C14.0894 6.26897 14.0114 6.10959 13.9068 5.96811C13.7887 5.80839 13.6247 5.68086 13.2967 5.42579L8.39076 1.61002C8.13662 1.41236 8.00956 1.31353 7.86925 1.27555C7.74545 1.24203 7.61496 1.24203 7.49116 1.27555C7.35085 1.31353 7.22378 1.41236 6.96965 1.61002Z" stroke="#667085" stroke-width="1.4467" stroke-linecap="round" stroke-linejoin="round"/>
</svg>
