<svg width="22" height="22" viewBox="0 0 22 22" fill="none" xmlns="http://www.w3.org/2000/svg">
<path d="M5.50014 16.5008H16.3294C17.2793 16.5008 17.7543 16.5008 18.1414 16.3292C18.4827 16.1779 18.7748 15.934 18.9847 15.6253C19.2228 15.2752 19.3078 14.8078 19.4777 13.8732L20.8285 6.44388C20.8874 6.11995 20.9169 5.95798 20.8714 5.83151C20.8315 5.72056 20.7536 5.62728 20.6516 5.56816C20.5353 5.50077 20.3707 5.50077 20.0414 5.50077H4.00014M1 1.50077H2.3164C2.55909 1.50077 2.68044 1.50077 2.77858 1.5451C2.86507 1.58417 2.93867 1.64705 2.99075 1.7264C3.04984 1.81642 3.06876 1.93628 3.10662 2.176L5.89338 19.8255C5.93124 20.0653 5.95016 20.1851 6.00925 20.2751C6.06133 20.3545 6.13493 20.4174 6.22142 20.4564C6.31956 20.5008 6.44091 20.5008 6.6836 20.5008H18" stroke="white" stroke-width="2" stroke-linecap="round" stroke-linejoin="round"/>
</svg>
