<svg width="36" height="35" viewBox="0 0 36 35" fill="none" xmlns="http://www.w3.org/2000/svg">
<g clip-path="url(#clip0_15_1048)">
<g clip-path="url(#clip1_15_1048)">
<path d="M35.6001 17.5C35.6001 7.83502 27.7651 0 18.1001 0C8.43511 0 0.600098 7.83502 0.600098 17.5C0.600098 27.165 8.43511 35 18.1001 35C27.7651 35 35.6001 27.165 35.6001 17.5Z" fill="#E6ECFC"/>
<path d="M21.4929 21.9065C20.781 22.3715 19.9307 22.6418 19.0159 22.6418C18.3024 22.6418 17.6287 22.4774 17.0292 22.1848C16.2848 21.8215 15.6541 21.2601 15.2062 20.5691C14.7466 19.86 14.4797 19.0146 14.4797 18.1056C14.4797 17.0809 14.8191 16.1366 15.3916 15.3772C16.2203 14.2784 17.5352 13.5694 19.0159 13.5694C21.5212 13.5694 23.5521 15.6004 23.5521 18.1056C23.5521 18.7484 23.4186 19.359 23.1783 19.9119C22.8229 20.7299 22.2328 21.4232 21.4929 21.9065Z" fill="#002985" stroke="#99B4F1" stroke-width="0.875"/>
<path d="M16.7004 18.0691L18.3492 19.745L21.4632 16.4667" stroke="#99B4F1" stroke-width="0.875" stroke-linecap="round"/>
<path d="M10.9631 11.4741H18.9929C22.6554 11.4741 25.6245 14.4431 25.6245 18.1056C25.6245 21.7681 22.6554 24.7372 18.9929 24.7372H16.8708" stroke="#99B4F1" stroke-width="0.875" stroke-linecap="round"/>
<path d="M12.2336 9.8483L10.5757 11.474L12.2336 13.3909" stroke="#99B4F1" stroke-width="0.875" stroke-linecap="round"/>
<path d="M14.759 24.7371H13.0198" stroke="#99B4F1" stroke-width="0.875" stroke-linecap="round"/>
</g>
</g>
<defs>
<clipPath id="clip0_15_1048">
<rect width="35" height="35" fill="white" transform="translate(0.600098)"/>
</clipPath>
<clipPath id="clip1_15_1048">
<rect width="35" height="35" fill="white" transform="translate(0.600098)"/>
</clipPath>
</defs>
</svg>
