<svg width="36" height="36" viewBox="0 0 36 36" fill="none" xmlns="http://www.w3.org/2000/svg">
<g clip-path="url(#clip0_15_1081)">
<g clip-path="url(#clip1_15_1081)">
<path d="M35.6001 17.59C35.6001 7.92501 27.7651 0.0899963 18.1001 0.0899963C8.43511 0.0899963 0.600098 7.92501 0.600098 17.59C0.600098 27.255 8.43511 35.09 18.1001 35.09C27.7651 35.09 35.6001 27.255 35.6001 17.59Z" fill="#E6ECFC"/>
<path fill-rule="evenodd" clip-rule="evenodd" d="M11.9944 16.0594C12.1638 19.5154 13.221 23.1101 18.5327 24.8699C25.9825 22.402 25.0642 16.325 25.0642 12.0829C22.3585 12.0829 20.2856 11.3441 18.5328 9.71512C16.7802 11.3441 14.7075 12.0829 12.0019 12.0829C12.0019 12.6458 11.9857 13.2409 11.9751 13.8557" fill="#002985"/>
<path d="M11.9944 16.0594C12.1638 19.5154 13.221 23.1101 18.5327 24.8699C25.9825 22.402 25.0642 16.325 25.0642 12.0829C22.3585 12.0829 20.2856 11.3441 18.5328 9.71512C16.7802 11.3441 14.7075 12.0829 12.0019 12.0829C12.0019 12.6458 11.9857 13.2409 11.9751 13.8557" stroke="#99B4F1" stroke-width="0.875" stroke-linecap="round" stroke-linejoin="round"/>
<path d="M20.8903 17.2588H16.1755V21.0307H20.8903V17.2588Z" fill="#002985" stroke="#99B4F1" stroke-width="0.875" stroke-linecap="round" stroke-linejoin="round"/>
<path fill-rule="evenodd" clip-rule="evenodd" d="M17.1182 15.7016V14.943C17.1182 14.1389 17.7701 13.4869 18.5742 13.4869C19.3783 13.4869 20.0303 14.1389 20.0303 14.943V15.7016" fill="#002985"/>
<path d="M17.1182 15.7016V14.943C17.1182 14.1389 17.7701 13.4869 18.5742 13.4869C19.3783 13.4869 20.0303 14.1389 20.0303 14.943V15.7016" stroke="#99B4F1" stroke-width="0.875" stroke-linecap="round" stroke-linejoin="round"/>
</g>
</g>
<defs>
<clipPath id="clip0_15_1081">
<rect width="35" height="35" fill="white" transform="translate(0.600098 0.0899963)"/>
</clipPath>
<clipPath id="clip1_15_1081">
<rect width="35" height="35" fill="white" transform="translate(0.600098 0.0899963)"/>
</clipPath>
</defs>
</svg>
