<svg width="8" height="8" viewBox="0 0 8 8" fill="none" xmlns="http://www.w3.org/2000/svg">
<path d="M3.94917 0.760172C4.03543 0.585416 4.07856 0.498039 4.13711 0.470121C4.18805 0.445832 4.24724 0.445832 4.29818 0.470121C4.35673 0.498039 4.39986 0.585416 4.48613 0.760172L5.30451 2.41812C5.32997 2.46971 5.34271 2.49551 5.36131 2.51554C5.37779 2.53327 5.39755 2.54764 5.4195 2.55784C5.44429 2.56937 5.47275 2.57353 5.52968 2.58185L7.36028 2.84942C7.55305 2.8776 7.64943 2.89169 7.69404 2.93877C7.73284 2.97973 7.7511 3.03602 7.74371 3.09197C7.73522 3.15627 7.66544 3.22423 7.52588 3.36016L6.20175 4.64987C6.16047 4.69007 6.13983 4.71017 6.12651 4.73409C6.11472 4.75527 6.10716 4.77853 6.10424 4.8026C6.10094 4.82977 6.10581 4.85817 6.11555 4.91496L6.42799 6.73661C6.46094 6.92875 6.47742 7.02481 6.44645 7.08182C6.41951 7.13142 6.37162 7.16621 6.31612 7.1765C6.25234 7.18832 6.16607 7.14296 5.99353 7.05222L4.35701 6.19159C4.30601 6.16477 4.28052 6.15137 4.25366 6.1461C4.22988 6.14143 4.20542 6.14143 4.18163 6.1461C4.15477 6.15137 4.12928 6.16477 4.07829 6.19159L2.44176 7.05222C2.26922 7.14296 2.18296 7.18832 2.11917 7.1765C2.06367 7.16621 2.01578 7.13142 1.98884 7.08182C1.95787 7.02481 1.97435 6.92875 2.0073 6.73661L2.31974 4.91496C2.32948 4.85817 2.33435 4.82977 2.33105 4.8026C2.32814 4.77853 2.32057 4.75527 2.30878 4.73409C2.29546 4.71017 2.27482 4.69007 2.23355 4.64987L0.909414 3.36016C0.769855 3.22423 0.700075 3.15627 0.691584 3.09197C0.684196 3.03602 0.702448 2.97973 0.741257 2.93877C0.785863 2.89169 0.882248 2.8776 1.07502 2.84942L2.90561 2.58185C2.96254 2.57353 2.991 2.56937 3.01579 2.55784C3.03774 2.54764 3.0575 2.53327 3.07398 2.51554C3.09259 2.49551 3.10532 2.46971 3.13079 2.41812L3.94917 0.760172Z" fill="#FAC515"/>
</svg>
