<svg width="36" height="36" viewBox="0 0 36 36" fill="none" xmlns="http://www.w3.org/2000/svg">
<g clip-path="url(#clip0_15_1063)">
<path d="M35.6001 17.75C35.6001 8.08502 27.7651 0.25 18.1001 0.25C8.43511 0.25 0.600098 8.08502 0.600098 17.75C0.600098 27.415 8.43511 35.25 18.1001 35.25C27.7651 35.25 35.6001 27.415 35.6001 17.75Z" fill="#E6ECFC"/>
<path fill-rule="evenodd" clip-rule="evenodd" d="M21.6224 21.2714H20.9492V14.3568H23.9217L26.7893 16.7778V21.2714H26.2803" fill="#002985"/>
<path d="M21.6224 21.2714H20.9492V14.3568H23.9217L26.7893 16.7778V21.2714H26.2803" stroke="#99B4F1" stroke-width="0.875" stroke-linecap="round" stroke-linejoin="round"/>
<path fill-rule="evenodd" clip-rule="evenodd" d="M22.2566 15.7375H23.7429L25.1653 16.9498V17.8119H22.2566V15.7375Z" stroke="#99B4F1" stroke-width="0.875" stroke-linecap="round" stroke-linejoin="round"/>
<path d="M20.7296 12.7711H11.4436V21.1285H20.7296V12.7711Z" fill="#002985"/>
<path fill-rule="evenodd" clip-rule="evenodd" d="M13.1902 21.2714H11.5559V19.0415M11.5559 14.8127V12.6282H20.9493V21.2714H18.0908" fill="#002985"/>
<path d="M13.1902 21.7089C13.4318 21.7089 13.6277 21.5129 13.6277 21.2714C13.6277 21.0298 13.4318 20.8339 13.1902 20.8339V21.7089ZM11.5559 21.2714H11.1184C11.1184 21.5129 11.3143 21.7089 11.5559 21.7089V21.2714ZM11.9934 19.0415C11.9934 18.7998 11.7976 18.604 11.5559 18.604C11.3143 18.604 11.1184 18.7998 11.1184 19.0415H11.9934ZM11.1184 14.8127C11.1184 15.0543 11.3143 15.2502 11.5559 15.2502C11.7975 15.2502 11.9934 15.0543 11.9934 14.8127H11.1184ZM11.5559 12.6282V12.1907C11.3143 12.1907 11.1184 12.3865 11.1184 12.6282H11.5559ZM20.9493 12.6282H21.3868C21.3868 12.3865 21.1909 12.1907 20.9493 12.1907V12.6282ZM20.9493 21.2714V21.7089C21.1909 21.7089 21.3868 21.5129 21.3868 21.2714H20.9493ZM18.0908 20.8339C17.8492 20.8339 17.6533 21.0298 17.6533 21.2714C17.6533 21.5129 17.8492 21.7089 18.0908 21.7089V20.8339ZM13.1902 20.8339H11.5559V21.7089H13.1902V20.8339ZM11.9934 21.2714V19.0415H11.1184V21.2714H11.9934ZM11.9934 14.8127V12.6282H11.1184V14.8127H11.9934ZM11.5559 13.0657H20.9493V12.1907H11.5559V13.0657ZM20.5118 12.6282V21.2714H21.3868V12.6282H20.5118ZM20.9493 20.8339H18.0908V21.7089H20.9493V20.8339Z" fill="#99B4F1"/>
<path fill-rule="evenodd" clip-rule="evenodd" d="M15.4802 23C16.2488 23 16.8718 22.3808 16.8718 21.6171C16.8718 20.8534 16.2488 20.2342 15.4802 20.2342C14.7117 20.2342 14.0886 20.8534 14.0886 21.6171C14.0886 22.3808 14.7117 23 15.4802 23Z" fill="#002985" stroke="#99B4F1" stroke-width="0.875" stroke-linecap="round" stroke-linejoin="round"/>
<path fill-rule="evenodd" clip-rule="evenodd" d="M23.8918 23C24.6604 23 25.2834 22.3808 25.2834 21.6171C25.2834 20.8534 24.6604 20.2342 23.8918 20.2342C23.1232 20.2342 22.5002 20.8534 22.5002 21.6171C22.5002 22.3808 23.1232 23 23.8918 23Z" fill="#002985" stroke="#99B4F1" stroke-width="0.875" stroke-linecap="round" stroke-linejoin="round"/>
<path d="M9.81641 15.9126H14.1256" stroke="#99B4F1" stroke-width="0.875" stroke-linecap="round" stroke-linejoin="round"/>
<path d="M9.24023 17.4108H11.2461" stroke="#99B4F1" stroke-width="0.875" stroke-linecap="round" stroke-linejoin="round"/>
</g>
<defs>
<clipPath id="clip0_15_1063">
<rect width="35" height="35" fill="white" transform="translate(0.600098 0.25)"/>
</clipPath>
</defs>
</svg>
